<?xml version="1.0" standalone="no"?><!DOCTYPE svg PUBLIC "-//W3C//DTD SVG 1.1//EN"
  "http://www.w3.org/Graphics/SVG/1.1/DTD/svg11.dtd">
<svg t="1680315971880" class="icon" viewBox="0 0 1024 1024" version="1.1" xmlns="http://www.w3.org/2000/svg" p-id="1551"
     width="200" height="200">
  <path
    d="M544.843906 8.02851l381.719173 168.598717c29.924448 13.137562 48.900927 42.332145 48.900927 75.176052v520.393442c0 32.114041-18.976479 62.038489-48.900927 75.176052l-381.719173 167.868852c-21.166073 9.488239-45.251604 9.488239-65.687812 0l-381.719173-168.598717c-29.924448-13.137562-48.900927-42.332145-48.900927-75.176051V251.073414c0-32.114041 18.976479-62.038489 48.900927-75.176051L478.42623 8.02851c21.166073-9.488239 45.251604-9.488239 66.417676 0zM129.550962 318.220955v453.975766l340.846757 150.352103v-445.217391L129.550962 318.220955z m764.168211 3.649323l-109.479686 51.09052v166.409124l-81.744833 40.872416-0.729864-169.328582-149.622238 70.067v441.568068l340.846757-150.352103V321.870278zM274.794013 187.575196l-118.967926 52.550249 359.823236 167.868853 121.157519-56.929437-362.012829-163.489665z m236.476122-105.100499l-136.484675 60.57876 359.093371 162.7598 137.21454-64.228082-359.823236-159.110478z m0 0"
    fill="#ffffff" p-id="1552"></path>
</svg>
