<?xml version="1.0" standalone="no"?><!DOCTYPE svg PUBLIC "-//W3C//DTD SVG 1.1//EN"
  "http://www.w3.org/Graphics/SVG/1.1/DTD/svg11.dtd">
<svg t="1680316265358" class="icon" viewBox="0 0 1024 1024" version="1.1" xmlns="http://www.w3.org/2000/svg"
     p-id="16476" width="250" height="250">
  <path
    d="M864 128h-704a128 128 0 0 0-128 128v512a128 128 0 0 0 128 128h704a128 128 0 0 0 128-128V256a128 128 0 0 0-128-128z m64 640a64 64 0 0 1-64 64h-704a64 64 0 0 1-64-64V256a64 64 0 0 1 64-64h704a64 64 0 0 1 64 64v512z"
    fill="#ffffff" p-id="16477"></path>
  <path
    d="M832 480h-192a32 32 0 0 0 0 64h192a32 32 0 0 0 0-64zM832 608h-192a32 32 0 0 0 0 64h192a32 32 0 0 0 0-64zM832 352h-192a32 32 0 0 0 0 64h192a32 32 0 0 0 0-64zM224.32 320.256c-15.808 63.68-37.44 116.736-64.832 159.104 1.024 11.712 3.136 30.272 6.336 55.68 1.024 15.936 2.112 28.16 3.136 36.672 9.472-12.736 18.432-25.408 26.88-38.208v168.64h61.696v-284.8c11.648-24.384 22.208-51.456 31.68-81.152l-64.896-15.936z"
    fill="#ffffff" p-id="16478"></path>
  <path
    d="M493.376 450.752h41.152v-58.88h-41.152V321.856h-61.696v70.016h-50.688V321.856h-61.696v70.016h-41.152v58.88h41.152v74.752h-49.024v58.816h71.168l-6.336 6.4c-29.568 33.984-52.224 57.344-68.032 70.016l49.024 43.008c11.584-11.712 27.968-29.184 49.088-52.48 12.672-13.824 22.656-24.96 30.08-33.408l-49.088-33.472h109.184l-42.688 35.008c20.032 21.248 46.912 48.256 80.704 81.216l49.024-42.944a156.608 156.608 0 0 1-25.344-23.872l-53.76-49.408H544v-58.88h-50.624V450.752z m-61.696 74.752h-50.688V450.752h50.688v74.752z"
    fill="#ffffff" p-id="16479"></path>
</svg>
