<?xml version="1.0" standalone="no"?><!DOCTYPE svg PUBLIC "-//W3C//DTD SVG 1.1//EN"
  "http://www.w3.org/Graphics/SVG/1.1/DTD/svg11.dtd">
<svg t="1680315727861" class="icon" viewBox="0 0 1024 1024" version="1.1" xmlns="http://www.w3.org/2000/svg"
     p-id="18627" width="200" height="200">
  <path
    d="M742.597 68.595a44 44 0 0 1 38.105 22L1011.298 490a44 44 0 0 1 0 44L780.702 933.405a44 44 0 0 1-38.105 22H281.403a44 44 0 0 1-38.105-22L12.702 534a44 44 0 0 1 0-44L243.298 90.595a44 44 0 0 1 38.105-22h461.194zM512 362c-82.843 0-150 67.157-150 150s67.157 150 150 150 150-67.157 150-150-67.157-150-150-150z"
    fill="#ffffff" p-id="18628"></path>
</svg>
